<?xml version="1.0" encoding="UTF-8"?>
<svg id="Layer_2" data-name="Layer 2" xmlns="http://www.w3.org/2000/svg" viewBox="0 0 276.15 42.98">
  <defs>
    <style>
      .cls-1 {
        fill: #fff;
      }

      .cls-2 {
        fill: #d4ff00;
      }
    </style>
  </defs>
  <g id="Layer_1-2" data-name="Layer 1">
    <path class="cls-1" d="M136.51,42.98V.84h7.95v34.91h19.26v7.22h-27.21Z"/>
    <polygon class="cls-1" points="7.95 35.75 7.95 .84 0 .84 0 42.98 60.07 42.98 60.07 35.75 7.95 35.75"/>
    <polygon class="cls-1" points="40.57 25.34 58.02 25.34 58.02 18.12 40.57 18.12 40.57 8.07 59.71 8.07 59.71 .84 32.62 .84 32.62 25.34 40.57 25.34"/>
    <polygon class="cls-1" points="89.92 .84 81.02 37.86 80.17 37.86 71.26 .84 63.08 .84 73.79 42.98 87.4 42.98 96.27 8.07 130.25 8.07 130.25 .84 89.92 .84"/>
    <polygon class="cls-1" points="111.11 35.75 111.11 25.34 128.57 25.34 128.57 18.12 111.11 18.12 103.17 18.12 103.17 42.98 130.61 42.98 130.61 35.75 111.11 35.75"/>
    <polygon class="cls-2" points="232.94 .84 232.94 37.56 231.85 37.56 223.49 .84 208.38 .84 208.38 42.98 216.2 42.98 216.2 6.26 217.29 6.26 225.65 42.98 240.76 42.98 240.76 8.07 275.79 8.07 275.79 .84 232.94 .84"/>
    <polygon class="cls-2" points="256.65 35.75 256.65 25.34 274.11 25.34 274.11 18.12 262.43 18.12 256.65 18.12 248.71 18.12 248.71 42.98 276.15 42.98 276.15 35.75 256.65 35.75"/>
    <path class="cls-2" d="M182.81,35.75c-1.44,0-2.88-.33-4.12-1.08-.56-.34-1.06-.74-1.52-1.2-1.67-1.69-2.5-3.96-2.5-6.79v-10.39c0-2.83.83-5.1,2.5-6.79,1.66-1.69,3.96-2.54,6.89-2.54s5.28.85,6.92,2.54c1.64,1.69,2.47,3.96,2.47,6.79v9.05h7.95v-8.81c0-5.31-1.56-9.4-4.69-12.25-3.13-2.85-7.34-4.28-12.64-4.28s-9.51,1.43-12.64,4.28c-3.13,2.85-4.69,6.94-4.69,12.25v9.92c0,5.31,1.56,9.4,4.69,12.25,2.99,2.72,6.96,4.14,11.92,4.27h0s32.86.01,32.86.01v-7.22h-33.39Z"/>
  </g>
</svg>